<svg width="178" height="285" viewBox="0 0 178 285" fill="none" xmlns="http://www.w3.org/2000/svg">
<path d="M40.6001 53.4C40.6001 40.5635 45.6994 28.2528 54.7761 19.176C63.8529 10.0993 76.1636 5 89.0001 5C101.837 5 114.147 10.0993 123.224 19.176C132.301 28.2528 137.4 40.5635 137.4 53.4V142.4C137.4 155.236 132.301 167.547 123.224 176.624C114.147 185.701 101.837 190.8 89.0001 190.8C76.1636 190.8 63.8529 185.701 54.7761 176.624C45.6994 167.547 40.6001 155.236 40.6001 142.4V53.4Z" fill="#F59E0B" stroke="#6F6F6F" stroke-width="10"/>
<path d="M8.9 115.7C11.2604 115.7 13.5242 116.638 15.1932 118.307C16.8623 119.976 17.8 122.24 17.8 124.6V142.4C17.8 161.283 25.3014 179.393 38.654 192.746C52.0066 206.099 70.1166 213.6 89 213.6C107.883 213.6 125.993 206.099 139.346 192.746C152.699 179.393 160.2 161.283 160.2 142.4V124.6C160.2 122.24 161.138 119.976 162.807 118.307C164.476 116.638 166.74 115.7 169.1 115.7C171.46 115.7 173.724 116.638 175.393 118.307C177.062 119.976 178 122.24 178 124.6V142.4C178 164.464 169.805 185.741 155.005 202.104C140.204 218.467 119.853 228.749 97.9 230.955V267H151.3C153.66 267 155.924 267.938 157.593 269.607C159.262 271.276 160.2 273.54 160.2 275.9C160.2 278.26 159.262 280.524 157.593 282.193C155.924 283.862 153.66 284.8 151.3 284.8H26.7C24.3396 284.8 22.0758 283.862 20.4068 282.193C18.7377 280.524 17.8 278.26 17.8 275.9C17.8 273.54 18.7377 271.276 20.4068 269.607C22.0758 267.938 24.3396 267 26.7 267H80.1V230.955C58.147 228.749 37.7961 218.467 22.9955 202.104C8.19484 185.741 -0.000277176 164.464 7.03111e-09 142.4V124.6C7.03111e-09 122.24 0.937678 119.976 2.60675 118.307C4.27582 116.638 6.53957 115.7 8.9 115.7Z" fill="#6F6F6F"/>
</svg>
